<svg width="155" height="35" viewBox="0 0 155 35" fill="none" xmlns="http://www.w3.org/2000/svg">
<path fill-rule="evenodd" clip-rule="evenodd" d="M72.4307 25.1656V8.78755H69.7373V25.1656H72.4307ZM45.9899 19.4296V25.1662H43.1884V9.64121H49.2349C50.4248 9.64121 51.4541 9.85268 52.323 10.2756C53.192 10.6986 53.8537 11.285 54.3079 12.035C54.7622 12.7849 54.9893 13.6398 54.9893 14.5994C54.9893 15.6017 54.764 16.4654 54.3133 17.1904C53.8626 17.9155 53.2064 18.47 52.3447 18.8539C51.483 19.2378 50.4464 19.4296 49.2349 19.4296H45.9899ZM45.9898 17.2118H49.2349C50.2371 17.2118 50.9781 16.9807 51.4576 16.5187C51.9372 16.0566 52.177 15.4239 52.177 14.6207C52.177 14.1231 52.0724 13.6664 51.8633 13.2505C51.6542 12.8347 51.3297 12.5006 50.8898 12.2483C50.4499 11.9959 49.8983 11.8697 49.2349 11.8697H45.9898V17.2118ZM61.9414 25.38C63.0592 25.38 64.0291 25.1277 64.8511 24.623C65.6732 24.1182 66.3024 23.4216 66.7386 22.533C67.1749 21.6445 67.393 20.6386 67.393 19.5154V19.2915C67.393 18.1684 67.1749 17.1625 66.7386 16.274C66.3024 15.3854 65.6714 14.687 64.8458 14.1787C64.02 13.6704 63.0447 13.4163 61.9199 13.4163C60.8094 13.4163 59.843 13.6704 59.0209 14.1787C58.1989 14.687 57.5697 15.3854 57.1334 16.274C56.6972 17.1625 56.479 18.1684 56.479 19.2915V19.5154C56.479 20.6386 56.6972 21.6445 57.1334 22.533C57.5697 23.4216 58.2007 24.1182 59.0264 24.623C59.852 25.1277 60.8237 25.38 61.9414 25.38ZM59.8646 22.2027C60.3262 22.8994 61.0184 23.2477 61.9415 23.2477C62.5544 23.2477 63.0682 23.0824 63.4828 22.7518C63.8975 22.4214 64.204 21.9753 64.4023 21.4137C64.6006 20.8521 64.6997 20.2195 64.6997 19.5157V19.2918C64.6997 18.5951 64.6006 17.9643 64.4023 17.3991C64.204 16.834 63.8957 16.3844 63.4775 16.0503C63.0592 15.7162 62.54 15.5491 61.9199 15.5491C61.3069 15.5491 60.7949 15.7162 60.3838 16.0503C59.9728 16.3844 59.6682 16.834 59.4699 17.3991C59.2716 17.9643 59.1724 18.5951 59.1724 19.2918V19.5157C59.1724 20.6104 59.4032 21.5061 59.8646 22.2027ZM78.6744 28.9658C78.1227 29.5381 77.3349 29.8242 76.3108 29.8242C75.9575 29.8242 75.5285 29.7602 75.0237 29.6323V27.5957L75.5212 27.617C76.163 27.617 76.6516 27.505 76.9869 27.2811C77.3223 27.0572 77.5872 26.6645 77.782 26.1029L78.1497 25.1219L74.0393 13.6274H76.949L79.3828 21.3686L81.7408 13.6274H84.6072L79.9453 26.9133C79.6497 27.7094 79.226 28.3936 78.6744 28.9658ZM88.7688 25.1668V16.8285C89.2014 15.9968 89.9334 15.5809 90.9646 15.5809C91.6424 15.5809 92.1559 15.7444 92.5059 16.0714C92.8559 16.3983 93.0309 16.9493 93.0309 17.7241V25.1668H95.7241V17.4789L95.713 17.2336C95.8714 16.7289 96.1404 16.3273 96.5189 16.0287C96.8975 15.7302 97.3681 15.5809 97.9309 15.5809C98.6152 15.5809 99.1292 15.7355 99.4718 16.0447C99.8145 16.3539 99.9858 16.9031 99.9858 17.6921V25.1668H102.679V17.7028C102.679 16.2171 102.351 15.1312 101.694 14.4453C101.039 13.7593 100.09 13.4163 98.8501 13.4163C98.0635 13.4163 97.3681 13.571 96.7621 13.8802C96.157 14.1894 95.655 14.6213 95.2589 15.1757C94.9633 14.5786 94.5414 14.136 93.9934 13.8482C93.4454 13.5603 92.8034 13.4163 92.0678 13.4163C91.3468 13.4163 90.7032 13.5389 90.1371 13.7842C89.5711 14.0295 89.0897 14.3831 88.6931 14.8452L88.6065 13.6296H86.0755V25.1668H88.7688ZM110.68 25.0281C110.168 25.2627 109.588 25.38 108.938 25.38C108.174 25.38 107.49 25.2308 106.884 24.9322C106.277 24.6336 105.805 24.2213 105.467 23.6953C105.128 23.1693 104.959 22.5792 104.959 21.9253C104.959 20.6955 105.422 19.7536 106.348 19.0996C107.275 18.4456 108.589 18.1187 110.291 18.1187H111.913V17.3723C111.913 16.7609 111.744 16.2828 111.405 15.9381C111.066 15.5933 110.565 15.4209 109.901 15.4209C109.505 15.4209 109.155 15.4885 108.852 15.6235C108.549 15.7586 108.315 15.9434 108.149 16.178C107.983 16.4126 107.9 16.6756 107.9 16.9671H105.207C105.207 16.3486 105.407 15.7675 105.807 15.2237C106.207 14.6799 106.777 14.2427 107.516 13.9121C108.255 13.5816 109.101 13.4163 110.053 13.4163C110.947 13.4163 111.737 13.5656 112.422 13.8641C113.107 14.1628 113.642 14.6106 114.028 15.2077C114.414 15.8048 114.607 16.5334 114.607 17.3935V22.4798C114.607 23.5318 114.755 24.367 115.051 24.9855V25.1668H112.303C112.187 24.918 112.087 24.5589 112 24.0899C111.632 24.4808 111.192 24.7935 110.68 25.0281ZM109.458 23.2575C108.889 23.2575 108.445 23.1099 108.128 22.815C107.81 22.52 107.652 22.1379 107.652 21.6687C107.652 21.0645 107.893 20.5954 108.377 20.2612C108.859 19.9272 109.57 19.7601 110.507 19.7601H111.913V21.914C111.712 22.2836 111.392 22.6 110.956 22.8629C110.52 23.126 110.021 23.2575 109.458 23.2575ZM120.001 17.3082V25.1668H117.308V13.6296H119.871L119.947 14.9304C120.242 14.4471 120.611 14.0739 121.05 13.8108C121.49 13.5479 121.999 13.4163 122.576 13.4163C122.727 13.4163 122.898 13.4305 123.089 13.459C123.28 13.4874 123.423 13.5194 123.517 13.5549L123.495 16.0607C123.135 16.0038 122.777 15.9754 122.424 15.9754C121.22 15.9754 120.412 16.4197 120.001 17.3082ZM127.829 25.1656V21.4229L129.009 20.2394L132.416 25.1656H135.531L130.74 18.4268L135.077 13.6284H131.832L128.631 17.2005L127.829 18.1815V8.78755H125.147V25.1656H127.829ZM144.658 24.7616C143.901 25.1738 142.984 25.38 141.91 25.38C140.771 25.38 139.775 25.1365 138.924 24.6496C138.074 24.1627 137.421 23.4962 136.967 22.6503C136.513 21.8044 136.285 20.8554 136.285 19.8034V19.3661C136.285 18.1791 136.516 17.1359 136.978 16.2367C137.439 15.3375 138.074 14.6425 138.881 14.1521C139.689 13.6616 140.598 13.4163 141.607 13.4163C142.711 13.4163 143.637 13.6545 144.387 14.1308C145.137 14.607 145.698 15.2734 146.069 16.13C146.44 16.9866 146.626 17.9801 146.626 19.1103V20.2299H139.001C139.05 20.8198 139.206 21.3424 139.466 21.7973C139.725 22.2523 140.076 22.6077 140.52 22.8636C140.963 23.1195 141.481 23.2475 142.072 23.2475C143.284 23.2475 144.257 22.7783 144.993 21.84L146.432 23.2155C146.006 23.8339 145.415 24.3493 144.658 24.7616ZM143.965 18.3108H139.054C139.177 17.4364 139.455 16.7576 139.888 16.2743C140.32 15.7908 140.89 15.5491 141.596 15.5491C142.389 15.5491 142.974 15.7891 143.349 16.2689C143.724 16.7487 143.929 17.3618 143.965 18.1083V18.3108ZM154.108 25.1239C153.589 25.2945 153.005 25.3798 152.356 25.3798C151.404 25.3798 150.654 25.1203 150.106 24.6014C149.558 24.0825 149.284 23.2544 149.284 22.117V15.5913H147.38V13.6294H149.284V10.8144H151.977V13.6294H154.032V15.5913H151.977V21.9357C151.977 22.4191 152.078 22.7479 152.28 22.9221C152.482 23.0962 152.785 23.1833 153.189 23.1833C153.477 23.1833 153.784 23.1477 154.108 23.0766V25.1239Z" fill="black"/>
<path fill-rule="evenodd" clip-rule="evenodd" d="M28.2326 16.0327V0L0 7.95172V8.08093V26.9192V27.0484L28.2326 35.0001V18.9675V16.0327ZM25.5 15.263V3.57691L4.75518 9.42025L25.5 15.263ZM23.4729 17.5001L2.73256 11.6579V23.3421L23.4729 17.5001ZM4.75524 25.5798L25.5 31.4232V19.7371L4.75524 25.5798Z" fill="black"/>
</svg>
